<mxfile host="app.diagrams.net" agent="Mozilla/5.0 (X11; Linux x86_64; rv:134.0) Gecko/20100101 Firefox/134.0" version="26.0.10">
  <diagram name="Page-1" id="d2ckcxvpufEsKHlQ2twN">
    <mxGraphModel dx="1101" dy="630" grid="1" gridSize="10" guides="1" tooltips="1" connect="1" arrows="1" fold="1" page="1" pageScale="1" pageWidth="1200" pageHeight="1600" math="0" shadow="0">
      <root>
        <mxCell id="0" />
        <mxCell id="1" parent="0" />
        <mxCell id="YQKE4nrwRtkmbAToj-p6-1" value="&lt;b&gt;Department&lt;/b&gt;" style="swimlane;fontStyle=0;childLayout=stackLayout;horizontal=1;startSize=26;fillColor=none;horizontalStack=0;resizeParent=1;resizeParentMax=0;resizeLast=0;collapsible=1;marginBottom=0;whiteSpace=wrap;html=1;" parent="1" vertex="1">
          <mxGeometry x="540" y="160" width="190" height="78" as="geometry" />
        </mxCell>
        <mxCell id="YQKE4nrwRtkmbAToj-p6-2" value="-name: String" style="text;strokeColor=none;fillColor=none;align=left;verticalAlign=top;spacingLeft=4;spacingRight=4;overflow=hidden;rotatable=0;points=[[0,0.5],[1,0.5]];portConstraint=eastwest;whiteSpace=wrap;html=1;" parent="YQKE4nrwRtkmbAToj-p6-1" vertex="1">
          <mxGeometry y="26" width="190" height="26" as="geometry" />
        </mxCell>
        <mxCell id="YQKE4nrwRtkmbAToj-p6-3" value="-abbreviation: String" style="text;strokeColor=none;fillColor=none;align=left;verticalAlign=top;spacingLeft=4;spacingRight=4;overflow=hidden;rotatable=0;points=[[0,0.5],[1,0.5]];portConstraint=eastwest;whiteSpace=wrap;html=1;" parent="YQKE4nrwRtkmbAToj-p6-1" vertex="1">
          <mxGeometry y="52" width="190" height="26" as="geometry" />
        </mxCell>
        <mxCell id="qXKZw0p8m8TEUcvXranH-1" value="&lt;b&gt;&lt;span style=&quot;white-space: pre;&quot;&gt;Course&lt;br&gt;&lt;/span&gt;&lt;/b&gt;" style="swimlane;fontStyle=0;childLayout=stackLayout;horizontal=1;startSize=26;fillColor=none;horizontalStack=0;resizeParent=1;resizeParentMax=0;resizeLast=0;collapsible=1;marginBottom=0;whiteSpace=wrap;html=1;" parent="1" vertex="1">
          <mxGeometry x="540" y="350" width="190" height="130" as="geometry" />
        </mxCell>
        <mxCell id="qXKZw0p8m8TEUcvXranH-2" value="-name: String" style="text;strokeColor=none;fillColor=none;align=left;verticalAlign=top;spacingLeft=4;spacingRight=4;overflow=hidden;rotatable=0;points=[[0,0.5],[1,0.5]];portConstraint=eastwest;whiteSpace=wrap;html=1;" parent="qXKZw0p8m8TEUcvXranH-1" vertex="1">
          <mxGeometry y="26" width="190" height="26" as="geometry" />
        </mxCell>
        <mxCell id="qXKZw0p8m8TEUcvXranH-9" value="-number: Integer" style="text;strokeColor=none;fillColor=none;align=left;verticalAlign=top;spacingLeft=4;spacingRight=4;overflow=hidden;rotatable=0;points=[[0,0.5],[1,0.5]];portConstraint=eastwest;whiteSpace=wrap;html=1;" parent="qXKZw0p8m8TEUcvXranH-1" vertex="1">
          <mxGeometry y="52" width="190" height="26" as="geometry" />
        </mxCell>
        <mxCell id="qXKZw0p8m8TEUcvXranH-33" value="-units: Integer" style="text;strokeColor=none;fillColor=none;align=left;verticalAlign=top;spacingLeft=4;spacingRight=4;overflow=hidden;rotatable=0;points=[[0,0.5],[1,0.5]];portConstraint=eastwest;whiteSpace=wrap;html=1;" parent="qXKZw0p8m8TEUcvXranH-1" vertex="1">
          <mxGeometry y="78" width="190" height="26" as="geometry" />
        </mxCell>
        <mxCell id="qXKZw0p8m8TEUcvXranH-34" value="-description: String" style="text;strokeColor=none;fillColor=none;align=left;verticalAlign=top;spacingLeft=4;spacingRight=4;overflow=hidden;rotatable=0;points=[[0,0.5],[1,0.5]];portConstraint=eastwest;whiteSpace=wrap;html=1;" parent="qXKZw0p8m8TEUcvXranH-1" vertex="1">
          <mxGeometry y="104" width="190" height="26" as="geometry" />
        </mxCell>
        <mxCell id="qXKZw0p8m8TEUcvXranH-10" value="&lt;b&gt;Instructor&lt;/b&gt;" style="swimlane;fontStyle=0;childLayout=stackLayout;horizontal=1;startSize=26;fillColor=none;horizontalStack=0;resizeParent=1;resizeParentMax=0;resizeLast=0;collapsible=1;marginBottom=0;whiteSpace=wrap;html=1;" parent="1" vertex="1">
          <mxGeometry x="880" y="350" width="226.15" height="120" as="geometry">
            <mxRectangle x="880" y="350" width="110" height="30" as="alternateBounds" />
          </mxGeometry>
        </mxCell>
        <mxCell id="qXKZw0p8m8TEUcvXranH-15" value="-tenured: Boolean" style="text;strokeColor=none;fillColor=none;align=left;verticalAlign=top;spacingLeft=4;spacingRight=4;overflow=hidden;rotatable=0;points=[[0,0.5],[1,0.5]];portConstraint=eastwest;whiteSpace=wrap;html=1;" parent="qXKZw0p8m8TEUcvXranH-10" vertex="1">
          <mxGeometry y="26" width="226.15" height="26" as="geometry" />
        </mxCell>
        <mxCell id="qXKZw0p8m8TEUcvXranH-16" value="-startDate: Date" style="text;strokeColor=none;fillColor=none;align=left;verticalAlign=top;spacingLeft=4;spacingRight=4;overflow=hidden;rotatable=0;points=[[0,0.5],[1,0.5]];portConstraint=eastwest;whiteSpace=wrap;html=1;" parent="qXKZw0p8m8TEUcvXranH-10" vertex="1">
          <mxGeometry y="52" width="226.15" height="26" as="geometry" />
        </mxCell>
        <mxCell id="qXKZw0p8m8TEUcvXranH-40" value="-availableCourseList: List" style="text;strokeColor=none;fillColor=none;align=left;verticalAlign=top;spacingLeft=4;spacingRight=4;overflow=hidden;rotatable=0;points=[[0,0.5],[1,0.5]];portConstraint=eastwest;whiteSpace=wrap;html=1;" parent="qXKZw0p8m8TEUcvXranH-10" vertex="1">
          <mxGeometry y="78" width="226.15" height="42" as="geometry" />
        </mxCell>
        <mxCell id="qXKZw0p8m8TEUcvXranH-17" value="&lt;b&gt;Availability&lt;/b&gt;" style="swimlane;fontStyle=0;childLayout=stackLayout;horizontal=1;startSize=26;fillColor=none;horizontalStack=0;resizeParent=1;resizeParentMax=0;resizeLast=0;collapsible=1;marginBottom=0;whiteSpace=wrap;html=1;" parent="1" vertex="1">
          <mxGeometry x="740" y="620" width="180" height="76" as="geometry" />
        </mxCell>
        <mxCell id="qXKZw0p8m8TEUcvXranH-67" value="" style="endArrow=none;html=1;edgeStyle=orthogonalEdgeStyle;rounded=1;entryX=0.502;entryY=1.019;entryDx=0;entryDy=0;entryPerimeter=0;curved=0;" parent="qXKZw0p8m8TEUcvXranH-17" target="qXKZw0p8m8TEUcvXranH-40" edge="1">
          <mxGeometry relative="1" as="geometry">
            <mxPoint x="140" as="sourcePoint" />
            <mxPoint x="300" as="targetPoint" />
            <Array as="points">
              <mxPoint x="140" y="-70" />
              <mxPoint x="254" y="-70" />
              <mxPoint x="254" y="-149" />
            </Array>
          </mxGeometry>
        </mxCell>
        <mxCell id="qXKZw0p8m8TEUcvXranH-68" value="1..*" style="edgeLabel;resizable=0;html=1;align=left;verticalAlign=bottom;" parent="qXKZw0p8m8TEUcvXranH-67" connectable="0" vertex="1">
          <mxGeometry x="-1" relative="1" as="geometry">
            <mxPoint x="-30" as="offset" />
          </mxGeometry>
        </mxCell>
        <mxCell id="qXKZw0p8m8TEUcvXranH-69" value="1..1" style="edgeLabel;resizable=0;html=1;align=right;verticalAlign=bottom;" parent="qXKZw0p8m8TEUcvXranH-67" connectable="0" vertex="1">
          <mxGeometry x="1" relative="1" as="geometry">
            <mxPoint x="46" y="19" as="offset" />
          </mxGeometry>
        </mxCell>
        <mxCell id="qXKZw0p8m8TEUcvXranH-70" value="has" style="edgeLabel;html=1;align=center;verticalAlign=middle;resizable=0;points=[];" parent="qXKZw0p8m8TEUcvXranH-67" vertex="1" connectable="0">
          <mxGeometry x="-0.0289" y="2" relative="1" as="geometry">
            <mxPoint as="offset" />
          </mxGeometry>
        </mxCell>
        <mxCell id="qXKZw0p8m8TEUcvXranH-61" value="-isInterested: Boolean" style="text;strokeColor=none;fillColor=none;align=left;verticalAlign=top;spacingLeft=4;spacingRight=4;overflow=hidden;rotatable=0;points=[[0,0.5],[1,0.5]];portConstraint=eastwest;whiteSpace=wrap;html=1;" parent="qXKZw0p8m8TEUcvXranH-17" vertex="1">
          <mxGeometry y="26" width="180" height="24" as="geometry" />
        </mxCell>
        <mxCell id="qXKZw0p8m8TEUcvXranH-62" value="-priority: Integer" style="text;strokeColor=none;fillColor=none;align=left;verticalAlign=top;spacingLeft=4;spacingRight=4;overflow=hidden;rotatable=0;points=[[0,0.5],[1,0.5]];portConstraint=eastwest;whiteSpace=wrap;html=1;" parent="qXKZw0p8m8TEUcvXranH-17" vertex="1">
          <mxGeometry y="50" width="180" height="26" as="geometry" />
        </mxCell>
        <mxCell id="qXKZw0p8m8TEUcvXranH-35" value="." style="endArrow=none;html=1;edgeStyle=orthogonalEdgeStyle;rounded=0;exitX=0.466;exitY=-0.011;exitDx=0;exitDy=0;exitPerimeter=0;" parent="1" source="qXKZw0p8m8TEUcvXranH-1" edge="1">
          <mxGeometry relative="1" as="geometry">
            <mxPoint x="630" y="340" as="sourcePoint" />
            <mxPoint x="630" y="240" as="targetPoint" />
          </mxGeometry>
        </mxCell>
        <mxCell id="qXKZw0p8m8TEUcvXranH-36" value="0..*" style="edgeLabel;resizable=0;html=1;align=left;verticalAlign=bottom;" parent="qXKZw0p8m8TEUcvXranH-35" connectable="0" vertex="1">
          <mxGeometry x="-1" relative="1" as="geometry">
            <mxPoint x="-39" as="offset" />
          </mxGeometry>
        </mxCell>
        <mxCell id="qXKZw0p8m8TEUcvXranH-37" value="1..1" style="edgeLabel;resizable=0;html=1;align=right;verticalAlign=bottom;" parent="qXKZw0p8m8TEUcvXranH-35" connectable="0" vertex="1">
          <mxGeometry x="1" relative="1" as="geometry">
            <mxPoint x="40" y="20" as="offset" />
          </mxGeometry>
        </mxCell>
        <mxCell id="qXKZw0p8m8TEUcvXranH-38" value="offers" style="edgeLabel;html=1;align=center;verticalAlign=middle;resizable=0;points=[];" parent="qXKZw0p8m8TEUcvXranH-35" vertex="1" connectable="0">
          <mxGeometry x="0.0008" relative="1" as="geometry">
            <mxPoint as="offset" />
          </mxGeometry>
        </mxCell>
        <mxCell id="qXKZw0p8m8TEUcvXranH-44" value="&lt;b&gt;Semester&lt;/b&gt;" style="swimlane;fontStyle=0;childLayout=stackLayout;horizontal=1;startSize=26;fillColor=none;horizontalStack=0;resizeParent=1;resizeParentMax=0;resizeLast=0;collapsible=1;marginBottom=0;whiteSpace=wrap;html=1;" parent="1" vertex="1">
          <mxGeometry x="270" y="350" width="190" height="50" as="geometry" />
        </mxCell>
        <mxCell id="qXKZw0p8m8TEUcvXranH-45" value="-semesterName: String" style="text;strokeColor=none;fillColor=none;align=left;verticalAlign=top;spacingLeft=4;spacingRight=4;overflow=hidden;rotatable=0;points=[[0,0.5],[1,0.5]];portConstraint=eastwest;whiteSpace=wrap;html=1;" parent="qXKZw0p8m8TEUcvXranH-44" vertex="1">
          <mxGeometry y="26" width="190" height="24" as="geometry" />
        </mxCell>
        <mxCell id="qXKZw0p8m8TEUcvXranH-48" value="&lt;b&gt;Season&lt;/b&gt;" style="swimlane;fontStyle=0;childLayout=stackLayout;horizontal=1;startSize=26;fillColor=none;horizontalStack=0;resizeParent=1;resizeParentMax=0;resizeLast=0;collapsible=1;marginBottom=0;whiteSpace=wrap;html=1;" parent="1" vertex="1">
          <mxGeometry x="295" y="560" width="140" height="52" as="geometry" />
        </mxCell>
        <mxCell id="qXKZw0p8m8TEUcvXranH-49" value="-year: Integer" style="text;strokeColor=none;fillColor=none;align=left;verticalAlign=top;spacingLeft=4;spacingRight=4;overflow=hidden;rotatable=0;points=[[0,0.5],[1,0.5]];portConstraint=eastwest;whiteSpace=wrap;html=1;" parent="qXKZw0p8m8TEUcvXranH-48" vertex="1">
          <mxGeometry y="26" width="140" height="26" as="geometry" />
        </mxCell>
        <mxCell id="qXKZw0p8m8TEUcvXranH-52" value="" style="endArrow=none;html=1;edgeStyle=orthogonalEdgeStyle;rounded=0;entryX=0.456;entryY=0.036;entryDx=0;entryDy=0;entryPerimeter=0;" parent="1" target="qXKZw0p8m8TEUcvXranH-48" edge="1">
          <mxGeometry relative="1" as="geometry">
            <mxPoint x="360" y="400" as="sourcePoint" />
            <mxPoint x="520" y="400" as="targetPoint" />
          </mxGeometry>
        </mxCell>
        <mxCell id="qXKZw0p8m8TEUcvXranH-53" value="1..1" style="edgeLabel;resizable=0;html=1;align=left;verticalAlign=bottom;" parent="qXKZw0p8m8TEUcvXranH-52" connectable="0" vertex="1">
          <mxGeometry x="-1" relative="1" as="geometry">
            <mxPoint y="20" as="offset" />
          </mxGeometry>
        </mxCell>
        <mxCell id="qXKZw0p8m8TEUcvXranH-54" value="0..*" style="edgeLabel;resizable=0;html=1;align=right;verticalAlign=bottom;" parent="qXKZw0p8m8TEUcvXranH-52" connectable="0" vertex="1">
          <mxGeometry x="1" relative="1" as="geometry">
            <mxPoint x="-9" y="-12" as="offset" />
          </mxGeometry>
        </mxCell>
        <mxCell id="qXKZw0p8m8TEUcvXranH-55" value="occurs in" style="edgeLabel;html=1;align=center;verticalAlign=middle;resizable=0;points=[];" parent="qXKZw0p8m8TEUcvXranH-52" vertex="1" connectable="0">
          <mxGeometry x="0.0049" y="-2" relative="1" as="geometry">
            <mxPoint x="1" y="-2" as="offset" />
          </mxGeometry>
        </mxCell>
        <mxCell id="qXKZw0p8m8TEUcvXranH-57" value="" style="endArrow=none;html=1;edgeStyle=orthogonalEdgeStyle;rounded=1;entryX=-0.014;entryY=0.364;entryDx=0;entryDy=0;entryPerimeter=0;exitX=0.461;exitY=1.067;exitDx=0;exitDy=0;exitPerimeter=0;curved=0;" parent="1" source="qXKZw0p8m8TEUcvXranH-49" target="qXKZw0p8m8TEUcvXranH-17" edge="1">
          <mxGeometry relative="1" as="geometry">
            <mxPoint x="360" y="640" as="sourcePoint" />
            <mxPoint x="520" y="640" as="targetPoint" />
            <Array as="points">
              <mxPoint x="359" y="640" />
              <mxPoint x="580" y="640" />
              <mxPoint x="580" y="639" />
            </Array>
          </mxGeometry>
        </mxCell>
        <mxCell id="qXKZw0p8m8TEUcvXranH-58" value="1..1" style="edgeLabel;resizable=0;html=1;align=left;verticalAlign=bottom;" parent="qXKZw0p8m8TEUcvXranH-57" connectable="0" vertex="1">
          <mxGeometry x="-1" relative="1" as="geometry">
            <mxPoint y="16" as="offset" />
          </mxGeometry>
        </mxCell>
        <mxCell id="qXKZw0p8m8TEUcvXranH-59" value="0..*" style="edgeLabel;resizable=0;html=1;align=right;verticalAlign=bottom;" parent="qXKZw0p8m8TEUcvXranH-57" connectable="0" vertex="1">
          <mxGeometry x="1" relative="1" as="geometry">
            <mxPoint x="-8" y="-9" as="offset" />
          </mxGeometry>
        </mxCell>
        <mxCell id="qXKZw0p8m8TEUcvXranH-60" value="is offered as" style="edgeLabel;html=1;align=center;verticalAlign=middle;resizable=0;points=[];" parent="qXKZw0p8m8TEUcvXranH-57" vertex="1" connectable="0">
          <mxGeometry x="0.1517" y="-2" relative="1" as="geometry">
            <mxPoint y="-52" as="offset" />
          </mxGeometry>
        </mxCell>
        <mxCell id="qXKZw0p8m8TEUcvXranH-63" value="" style="endArrow=none;html=1;edgeStyle=orthogonalEdgeStyle;rounded=1;entryX=0.5;entryY=0;entryDx=0;entryDy=0;curved=0;exitX=0.427;exitY=1.13;exitDx=0;exitDy=0;exitPerimeter=0;" parent="1" source="qXKZw0p8m8TEUcvXranH-34" target="qXKZw0p8m8TEUcvXranH-17" edge="1">
          <mxGeometry relative="1" as="geometry">
            <mxPoint x="620" y="490" as="sourcePoint" />
            <mxPoint x="780" y="490" as="targetPoint" />
            <Array as="points">
              <mxPoint x="620" y="483" />
              <mxPoint x="620" y="540" />
              <mxPoint x="830" y="540" />
            </Array>
          </mxGeometry>
        </mxCell>
        <mxCell id="qXKZw0p8m8TEUcvXranH-64" value="1..1" style="edgeLabel;resizable=0;html=1;align=left;verticalAlign=bottom;" parent="qXKZw0p8m8TEUcvXranH-63" connectable="0" vertex="1">
          <mxGeometry x="-1" relative="1" as="geometry">
            <mxPoint x="10" y="17" as="offset" />
          </mxGeometry>
        </mxCell>
        <mxCell id="qXKZw0p8m8TEUcvXranH-65" value="0..*" style="edgeLabel;resizable=0;html=1;align=right;verticalAlign=bottom;" parent="qXKZw0p8m8TEUcvXranH-63" connectable="0" vertex="1">
          <mxGeometry x="1" relative="1" as="geometry">
            <mxPoint x="-10" as="offset" />
          </mxGeometry>
        </mxCell>
        <mxCell id="qXKZw0p8m8TEUcvXranH-66" value="&lt;div&gt;could &lt;br&gt;&lt;/div&gt;&lt;div&gt;be&lt;/div&gt;&lt;div&gt;taught&lt;/div&gt;&lt;div&gt;by&lt;br&gt;&lt;/div&gt;" style="edgeLabel;html=1;align=center;verticalAlign=middle;resizable=0;points=[];" parent="qXKZw0p8m8TEUcvXranH-63" vertex="1" connectable="0">
          <mxGeometry x="-0.0939" y="-2" relative="1" as="geometry">
            <mxPoint as="offset" />
          </mxGeometry>
        </mxCell>
        <mxCell id="qXKZw0p8m8TEUcvXranH-71" value="&lt;div&gt;{year,&lt;/div&gt;&lt;div&gt;semesterName,&lt;/div&gt;&lt;div&gt;courseName,&lt;/div&gt;&lt;div&gt;instructor,&lt;/div&gt;&lt;div&gt;inInterested}&lt;/div&gt;" style="text;html=1;align=center;verticalAlign=middle;resizable=0;points=[];autosize=1;strokeColor=none;fillColor=none;" parent="1" vertex="1">
          <mxGeometry x="940" y="568" width="120" height="90" as="geometry" />
        </mxCell>
        <mxCell id="qXKZw0p8m8TEUcvXranH-72" value="&lt;b&gt;Section&lt;/b&gt;" style="swimlane;fontStyle=0;childLayout=stackLayout;horizontal=1;startSize=26;fillColor=none;horizontalStack=0;resizeParent=1;resizeParentMax=0;resizeLast=0;collapsible=1;marginBottom=0;whiteSpace=wrap;html=1;" parent="1" vertex="1">
          <mxGeometry x="530" y="750" width="140" height="78" as="geometry" />
        </mxCell>
        <mxCell id="qXKZw0p8m8TEUcvXranH-73" value="+ field: type" style="text;strokeColor=none;fillColor=none;align=left;verticalAlign=top;spacingLeft=4;spacingRight=4;overflow=hidden;rotatable=0;points=[[0,0.5],[1,0.5]];portConstraint=eastwest;whiteSpace=wrap;html=1;" parent="qXKZw0p8m8TEUcvXranH-72" vertex="1">
          <mxGeometry y="26" width="140" height="26" as="geometry" />
        </mxCell>
        <mxCell id="qXKZw0p8m8TEUcvXranH-74" value="+ field: type" style="text;strokeColor=none;fillColor=none;align=left;verticalAlign=top;spacingLeft=4;spacingRight=4;overflow=hidden;rotatable=0;points=[[0,0.5],[1,0.5]];portConstraint=eastwest;whiteSpace=wrap;html=1;" parent="qXKZw0p8m8TEUcvXranH-72" vertex="1">
          <mxGeometry y="52" width="140" height="26" as="geometry" />
        </mxCell>
        <mxCell id="qXKZw0p8m8TEUcvXranH-76" value="" style="endArrow=none;html=1;edgeStyle=orthogonalEdgeStyle;rounded=0;entryX=0.359;entryY=-0.009;entryDx=0;entryDy=0;entryPerimeter=0;" parent="1" target="qXKZw0p8m8TEUcvXranH-72" edge="1">
          <mxGeometry relative="1" as="geometry">
            <mxPoint x="580" y="480" as="sourcePoint" />
            <mxPoint x="740" y="480" as="targetPoint" />
          </mxGeometry>
        </mxCell>
        <mxCell id="qXKZw0p8m8TEUcvXranH-77" value="1..1" style="edgeLabel;resizable=0;html=1;align=left;verticalAlign=bottom;" parent="qXKZw0p8m8TEUcvXranH-76" connectable="0" vertex="1">
          <mxGeometry x="-1" relative="1" as="geometry">
            <mxPoint y="20" as="offset" />
          </mxGeometry>
        </mxCell>
        <mxCell id="qXKZw0p8m8TEUcvXranH-78" value="0..*" style="edgeLabel;resizable=0;html=1;align=right;verticalAlign=bottom;" parent="qXKZw0p8m8TEUcvXranH-76" connectable="0" vertex="1">
          <mxGeometry x="1" relative="1" as="geometry" />
        </mxCell>
      </root>
    </mxGraphModel>
  </diagram>
</mxfile>
